<svg width="14" height="22" viewBox="0 0 14 22" fill="none" xmlns="http://www.w3.org/2000/svg">
<path d="M7.15385 3.55664C9.76923 3.55664 11.9231 5.71045 11.9231 8.32583C11.9231 9.17199 11.6923 10.0181 11.2308 10.7873L11 11.2489L11.4615 12.7104C11.6154 13.2489 12 13.6336 12.5385 13.9413C13 14.172 13.3077 14.6336 13.3077 15.1721V15.4797C13.3077 16.0951 12.7692 16.6336 12.1538 16.6336H2.15385C1.53846 16.6336 1 16.0951 1 15.4797V15.1721C1 14.6336 1.30769 14.172 1.76923 13.9413C2.23077 13.7105 2.61539 13.2489 2.84616 12.7104L3.30769 11.2489L3.07692 10.7873C1.69231 8.55657 2.46154 5.55657 4.69231 4.24887C5.46154 3.78733 6.30769 3.55664 7.15385 3.55664Z" stroke="white" stroke-linecap="round" stroke-linejoin="round"/>
<path d="M7.1537 21.2488C8.00337 21.2488 8.69216 20.56 8.69216 19.7103C8.69216 18.8607 8.00337 18.1719 7.1537 18.1719C6.30403 18.1719 5.61523 18.8607 5.61523 19.7103C5.61523 20.56 6.30403 21.2488 7.1537 21.2488Z" stroke="white" stroke-linecap="round" stroke-linejoin="round"/>
<path d="M5.61523 3.55769V2.78846C5.61523 1.94231 6.30754 1.25 7.1537 1.25C7.99985 1.25 8.69216 1.94231 8.69216 2.78846V3.55769" stroke="white" stroke-linecap="round" stroke-linejoin="round"/>
</svg>
