<svg width="105" height="23" viewBox="0 0 105 23" fill="none" xmlns="http://www.w3.org/2000/svg">
<path d="M34.373 15.0123C34.373 13.9842 34.6063 13.0619 35.0727 12.2455C35.5392 11.419 36.1729 10.7739 36.974 10.3102C37.7852 9.84659 38.6826 9.61476 39.6662 9.61476C40.8222 9.61476 41.8311 9.89195 42.6931 10.4463C43.555 11.0007 44.1837 11.7869 44.5791 12.8049H42.9212C42.6271 12.1699 42.2013 11.6811 41.6435 11.3383C41.096 10.9956 40.4369 10.8243 39.6662 10.8243C38.926 10.8243 38.2618 10.9956 37.6737 11.3383C37.0855 11.6811 36.6242 12.1699 36.2895 12.8049C35.9549 13.4298 35.7876 14.1656 35.7876 15.0123C35.7876 15.8489 35.9549 16.5847 36.2895 17.2197C36.6242 17.8447 37.0855 18.3285 37.6737 18.6712C38.2618 19.0139 38.926 19.1852 39.6662 19.1852C40.4369 19.1852 41.096 19.0189 41.6435 18.6863C42.2013 18.3436 42.6271 17.8547 42.9212 17.2197H44.5791C44.1837 18.2277 43.555 19.0088 42.6931 19.5632C41.8311 20.1075 40.8222 20.3796 39.6662 20.3796C38.6826 20.3796 37.7852 20.1528 36.974 19.6993C36.1729 19.2356 35.5392 18.5956 35.0727 17.7791C34.6063 16.9627 34.373 16.0404 34.373 15.0123Z" fill="white"/>
<path d="M50.2748 20.425C49.494 20.425 48.7842 20.2486 48.1453 19.8958C47.5166 19.543 47.0198 19.0441 46.6547 18.399C46.2998 17.7439 46.1224 16.9879 46.1224 16.1311C46.1224 15.2845 46.3049 14.5386 46.6699 13.8935C47.0451 13.2383 47.5521 12.7394 48.191 12.3967C48.8298 12.0439 49.5447 11.8675 50.3356 11.8675C51.1265 11.8675 51.8414 12.0439 52.4802 12.3967C53.1191 12.7394 53.621 13.2333 53.9861 13.8784C54.3612 14.5235 54.5488 15.2744 54.5488 16.1311C54.5488 16.9879 54.3562 17.7439 53.9709 18.399C53.5957 19.0441 53.0836 19.543 52.4346 19.8958C51.7856 20.2486 51.0657 20.425 50.2748 20.425ZM50.2748 19.2155C50.7716 19.2155 51.2381 19.0995 51.6741 18.8677C52.1101 18.6359 52.46 18.2881 52.7236 17.8245C52.9974 17.3608 53.1343 16.7964 53.1343 16.1311C53.1343 15.4659 53.0025 14.9014 52.7388 14.4378C52.4752 13.9741 52.1304 13.6314 51.7045 13.4097C51.2786 13.1779 50.8173 13.0619 50.3204 13.0619C49.8134 13.0619 49.3469 13.1779 48.9211 13.4097C48.5053 13.6314 48.1707 13.9741 47.9172 14.4378C47.6637 14.9014 47.5369 15.4659 47.5369 16.1311C47.5369 16.8065 47.6586 17.376 47.902 17.8396C48.1555 18.3033 48.4901 18.651 48.9058 18.8828C49.3216 19.1046 49.7779 19.2155 50.2748 19.2155Z" fill="white"/>
<path d="M57.0836 10.658C56.82 10.658 56.5969 10.5673 56.4144 10.3858C56.2318 10.2044 56.1406 9.98266 56.1406 9.72059C56.1406 9.45853 56.2318 9.23678 56.4144 9.05535C56.5969 8.87392 56.82 8.7832 57.0836 8.7832C57.3371 8.7832 57.5501 8.87392 57.7224 9.05535C57.905 9.23678 57.9962 9.45853 57.9962 9.72059C57.9962 9.98266 57.905 10.2044 57.7224 10.3858C57.5501 10.5673 57.3371 10.658 57.0836 10.658ZM57.7529 12.0036V20.2889H56.3687V12.0036H57.7529Z" fill="white"/>
<path d="M64.173 11.8524C65.187 11.8524 66.0084 12.1598 66.6371 12.7747C67.2658 13.3794 67.5801 14.2564 67.5801 15.4054V20.2889H66.2112V15.602C66.2112 14.7754 66.0033 14.1455 65.5876 13.7121C65.1718 13.2686 64.604 13.0468 63.884 13.0468C63.1539 13.0468 62.5709 13.2736 62.1348 13.7272C61.7089 14.1808 61.496 14.841 61.496 15.7078V20.2889H60.1119V12.0036H61.496V13.1829C61.7698 12.7596 62.1399 12.432 62.6063 12.2001C63.0829 11.9683 63.6052 11.8524 64.173 11.8524Z" fill="white"/>
<path d="M75.1495 14.8611C75.5348 14.9216 75.8846 15.0778 76.199 15.3298C76.5234 15.5818 76.777 15.8943 76.9595 16.2672C77.1521 16.6402 77.2485 17.0383 77.2485 17.4616C77.2485 17.9958 77.1116 18.4797 76.8378 18.9131C76.564 19.3364 76.1635 19.6741 75.6362 19.9261C75.119 20.168 74.5056 20.2889 73.7957 20.2889H69.8411V9.75083H73.6436C74.3636 9.75083 74.9771 9.87179 75.4841 10.1137C75.9911 10.3455 76.3713 10.663 76.6248 11.0662C76.8784 11.4694 77.0051 11.923 77.0051 12.4269C77.0051 13.0519 76.8327 13.571 76.488 13.9842C76.1533 14.3874 75.7072 14.6797 75.1495 14.8611ZM71.2252 14.3017H73.5524C74.2014 14.3017 74.7033 14.1505 75.0582 13.8481C75.4131 13.5458 75.5906 13.1275 75.5906 12.5932C75.5906 12.059 75.4131 11.6407 75.0582 11.3383C74.7033 11.036 74.1912 10.8848 73.522 10.8848H71.2252V14.3017ZM73.6741 19.155C74.3636 19.155 74.901 18.9937 75.2863 18.6712C75.6717 18.3486 75.8643 17.9001 75.8643 17.3256C75.8643 16.7409 75.6615 16.2823 75.2559 15.9497C74.8503 15.607 74.3078 15.4357 73.6284 15.4357H71.2252V19.155H73.6741Z" fill="white"/>
<path d="M78.6521 16.116C78.6521 15.2693 78.8245 14.5285 79.1692 13.8935C79.514 13.2484 79.9855 12.7495 80.5838 12.3967C81.1922 12.0439 81.8665 11.8675 82.6068 11.8675C83.3368 11.8675 83.9706 12.0238 84.508 12.3362C85.0455 12.6487 85.446 13.0418 85.7096 13.5155V12.0036H87.109V20.2889H85.7096V18.7468C85.4359 19.2306 85.0252 19.6338 84.4776 19.9563C83.9402 20.2688 83.3115 20.425 82.5915 20.425C81.8513 20.425 81.1821 20.2436 80.5838 19.8807C79.9855 19.5178 79.514 19.0088 79.1692 18.3537C78.8245 17.6985 78.6521 16.9526 78.6521 16.116ZM85.7096 16.1311C85.7096 15.5062 85.5829 14.9619 85.3294 14.4983C85.0759 14.0346 84.7311 13.6818 84.2951 13.4399C83.8692 13.1879 83.3977 13.0619 82.8805 13.0619C82.3634 13.0619 81.8919 13.1829 81.466 13.4248C81.0401 13.6667 80.7004 14.0195 80.4469 14.4831C80.1934 14.9468 80.0666 15.4911 80.0666 16.116C80.0666 16.751 80.1934 17.3054 80.4469 17.7791C80.7004 18.2428 81.0401 18.6006 81.466 18.8526C81.8919 19.0945 82.3634 19.2155 82.8805 19.2155C83.3977 19.2155 83.8692 19.0945 84.2951 18.8526C84.7311 18.6006 85.0759 18.2428 85.3294 17.7791C85.5829 17.3054 85.7096 16.7561 85.7096 16.1311Z" fill="white"/>
<path d="M92.3988 20.425C91.76 20.425 91.1871 20.3192 90.6801 20.1075C90.1731 19.8857 89.7725 19.5834 89.4785 19.2003C89.1844 18.8072 89.0222 18.3587 88.9917 17.8547H90.4215C90.4621 18.268 90.6547 18.6056 90.9995 18.8677C91.3544 19.1298 91.8158 19.2608 92.3836 19.2608C92.9109 19.2608 93.3266 19.1449 93.6309 18.9131C93.9351 18.6812 94.0872 18.3889 94.0872 18.0362C94.0872 17.6733 93.9249 17.4062 93.6004 17.2348C93.276 17.0534 92.774 16.877 92.0946 16.7057C91.4761 16.5444 90.9691 16.3831 90.5736 16.2219C90.1883 16.0505 89.8536 15.8036 89.5697 15.481C89.2959 15.1484 89.159 14.715 89.159 14.1808C89.159 13.7574 89.2858 13.3694 89.5393 13.0166C89.7928 12.6638 90.1528 12.3866 90.6192 12.185C91.0857 11.9734 91.618 11.8675 92.2163 11.8675C93.1391 11.8675 93.8844 12.0993 94.4522 12.563C95.0201 13.0267 95.3243 13.6617 95.3648 14.468H93.9807C93.9503 14.0346 93.7728 13.6869 93.4483 13.4248C93.134 13.1627 92.7081 13.0317 92.1707 13.0317C91.6738 13.0317 91.2783 13.1375 90.9843 13.3492C90.6902 13.5609 90.5432 13.8381 90.5432 14.1808C90.5432 14.4529 90.6294 14.6797 90.8017 14.8611C90.9843 15.0325 91.2074 15.1736 91.471 15.2845C91.7448 15.3853 92.12 15.5012 92.5966 15.6322C93.1948 15.7935 93.6816 15.9547 94.0567 16.116C94.4319 16.2672 94.7513 16.499 95.015 16.8115C95.2888 17.124 95.4307 17.5322 95.4409 18.0362C95.4409 18.4897 95.3141 18.898 95.0606 19.2608C94.8071 19.6237 94.4471 19.9109 93.9807 20.1226C93.5244 20.3242 92.9971 20.425 92.3988 20.425Z" fill="white"/>
<path d="M105 15.8288C105 16.0908 104.985 16.368 104.954 16.6603H98.2922C98.3429 17.4767 98.6217 18.1168 99.1288 18.5805C99.6459 19.034 100.27 19.2608 101 19.2608C101.598 19.2608 102.095 19.1247 102.49 18.8526C102.896 18.5704 103.18 18.1974 103.342 17.7338H104.833C104.61 18.5301 104.163 19.1802 103.494 19.6842C102.825 20.178 101.993 20.425 101 20.425C100.209 20.425 99.4989 20.2486 98.8702 19.8958C98.2516 19.543 97.7649 19.0441 97.41 18.399C97.0551 17.7439 96.8776 16.9879 96.8776 16.1311C96.8776 15.2744 97.05 14.5235 97.3948 13.8784C97.7396 13.2333 98.2212 12.7394 98.8398 12.3967C99.4685 12.0439 100.188 11.8675 101 11.8675C101.791 11.8675 102.49 12.0389 103.099 12.3816C103.707 12.7243 104.173 13.198 104.498 13.8028C104.833 14.3975 105 15.0728 105 15.8288ZM103.57 15.5415C103.57 15.0174 103.454 14.5688 103.22 14.1959C102.987 13.8129 102.668 13.5256 102.262 13.3341C101.867 13.1325 101.426 13.0317 100.939 13.0317C100.239 13.0317 99.6408 13.2534 99.144 13.6969C98.6572 14.1404 98.3784 14.7553 98.3074 15.5415H103.57Z" fill="white"/>
<path d="M18.7612 21.9777H25.5522C27.0149 21.9777 28.1642 20.6542 28.1642 19.1101C28.1642 17.5661 27.0149 16.2426 25.5522 16.2426C25.0298 16.2426 24.5075 16.2426 23.9851 16.2426C26.0746 11.5001 25.0298 1.02246 15.6269 1.02246C9.35821 1.02246 6.22388 4.88263 6.22388 12.7133H5.1791C2.8806 12.7133 1 14.8088 1 17.3455C1 19.8822 2.8806 21.9777 5.1791 21.9777H10.403H18.7612Z" stroke="white" stroke-width="2" stroke-linecap="round" stroke-linejoin="round"/>
<path d="M15.5737 11.3439L13.8301 11.9264L12.9631 9.33118L14.6797 8.75771C15.0354 8.63886 15.4136 8.66339 15.7459 8.82555L15.746 8.82561C16.0783 8.98756 16.3234 9.26675 16.4389 9.61259C16.5544 9.95837 16.5264 10.3285 16.3581 10.6577L16.358 10.658C16.1942 10.9793 15.9173 11.2217 15.5737 11.3439ZM11.7491 9.73613L12.0981 9.61955L14.2473 16.0527L13.8983 16.1693C13.6635 16.2477 13.5286 16.5019 13.6091 16.7429C13.6896 16.9838 13.9502 17.1059 14.185 17.0274L15.7018 16.5207L15.8148 16.8589C15.8953 17.0998 16.1559 17.2219 16.3907 17.1435C16.6255 17.065 16.7605 16.8108 16.68 16.5699L16.567 16.2317L16.8823 16.1263L16.9953 16.4645C17.0758 16.7055 17.3364 16.8275 17.5712 16.7491C17.8065 16.6705 17.9405 16.4161 17.8601 16.1756L17.747 15.837C19.0318 15.3811 19.7326 13.9933 19.3031 12.7077C18.9842 11.7532 18.1332 11.1284 17.1842 11.0367C17.4391 10.5204 17.4998 9.91023 17.3038 9.32365C16.9774 8.34668 16.0438 7.74562 15.0553 7.77975L14.9115 7.34942L14.9115 7.34938C14.8311 7.10899 14.571 6.98654 14.3359 7.06505C14.1014 7.14342 13.9661 7.39749 14.0466 7.63836L14.1599 7.97742L13.8446 8.08276L13.7313 7.74375C13.7313 7.74374 13.7313 7.74372 13.7313 7.74371C13.6508 7.50281 13.39 7.38106 13.1555 7.45942C12.9209 7.53778 12.7857 7.79186 12.8662 8.03273L12.9794 8.37178L12.5516 8.5147L12.5515 8.51414L12.3143 8.59335L11.4624 8.87797C11.2276 8.95642 11.0927 9.21068 11.1732 9.45156C11.2537 9.69246 11.5143 9.81458 11.7491 9.73613ZM18.3455 14.197L18.3455 14.1971C18.1527 14.5752 17.823 14.8581 17.4148 14.9945L15.1121 15.7638L14.1169 12.7849L15.8335 12.2114C15.8453 12.2074 15.8567 12.2033 15.8649 12.2003L16.4194 12.015C16.8274 11.8787 17.2612 11.9071 17.6427 12.0932L17.6428 12.0932C18.0242 12.2792 18.3056 12.5996 18.4382 12.9966C18.5709 13.3938 18.5386 13.8188 18.3455 14.197Z" fill="white" stroke="white" stroke-width="0.5"/>
</svg>
