<svg width="36" height="36" viewBox="0 0 36 36" fill="none" xmlns="http://www.w3.org/2000/svg">
<mask id="mask0_105_266" style="mask-type:alpha" maskUnits="userSpaceOnUse" x="0" y="0" width="36" height="36">
<circle cx="18" cy="18" r="18" fill="#C4C4C4"/>
</mask>
<g mask="url(#mask0_105_266)">
<path d="M11.6654 35.0001H23.008C25.451 35.0001 27.3706 32.7896 27.3706 30.2107C27.3706 27.6317 25.451 25.4212 23.008 25.4212C22.1355 25.4212 21.263 25.4212 20.3905 25.4212C23.8805 17.5001 22.1355 0 6.4303 0C-4.03983 0 -9.27489 6.4474 -9.27489 19.5264H-11.0199C-14.859 19.5264 -18 23.0264 -18 27.2633C-18 31.5001 -14.859 35.0001 -11.0199 35.0001H-2.29481H11.6654Z" stroke="white" stroke-width="2" stroke-linecap="round" stroke-linejoin="round"/>
<path d="M-0.100388 14.3946L0.641385 14.1468L4.3372 25.2095L3.59542 25.4573C3.28831 25.5599 3.11396 25.8914 3.21818 26.2033C3.3224 26.5153 3.66097 26.6754 3.96809 26.5728L6.66048 25.6733L6.90229 26.3971C7.00651 26.7091 7.34508 26.8692 7.6522 26.7666C7.95932 26.664 8.13367 26.3325 8.02945 26.0206L7.78764 25.2968L8.63212 25.0146L8.87393 25.7385C8.97815 26.0504 9.31672 26.2105 9.62384 26.1079C9.93142 26.0052 10.1047 25.6736 10.0006 25.3621L9.75879 24.6383L9.84143 24.6106C11.9505 23.906 13.1062 21.6519 12.4106 19.5698C11.8719 17.9572 10.3831 16.93 8.7597 16.876C9.26625 16.0071 9.41277 14.9395 9.07139 13.9177C8.53731 12.319 6.98227 11.3488 5.35616 11.4598L5.07571 10.6203L5.07569 10.6202C4.97166 10.309 4.63372 10.1485 4.32639 10.2511C4.0195 10.3537 3.84485 10.685 3.94898 10.9967L4.19126 11.7219L3.34675 12.004L3.10448 11.2789C3.10448 11.2789 3.10447 11.2788 3.10447 11.2788C3.00036 10.9671 2.66161 10.8073 2.35475 10.9098C2.04786 11.0124 1.87321 11.3437 1.97734 11.6554L2.21962 12.3806L1.18729 12.7255L1.18698 12.7245L0.949857 12.8038L-0.473082 13.2791C-0.780199 13.3817 -0.954495 13.7133 -0.850297 14.0252C-0.746094 14.3371 -0.40752 14.4972 -0.100388 14.3946ZM6.39527 17.3973L3.32266 18.4238L1.76836 13.7713L4.79437 12.7604C5.42976 12.5482 6.10679 12.5918 6.70174 12.8821L6.70186 12.8821C7.29701 13.1722 7.73734 13.6734 7.9447 14.2941C8.15204 14.9147 8.10129 15.5795 7.79996 16.1691L7.79985 16.1693C7.50634 16.745 7.00973 17.1791 6.39527 17.3973ZM11.1195 22.0804L11.1195 22.0805C10.7772 22.7516 10.1917 23.2536 9.46877 23.4951L5.46386 24.8331L3.69548 19.5398L6.7215 18.5289C6.73987 18.5227 6.75762 18.5162 6.77151 18.5111L7.70008 18.2009C8.42284 17.9595 9.19287 18.0095 9.86984 18.3398L9.86994 18.3399C10.547 18.6699 11.0481 19.2401 11.284 19.9462C11.52 20.6527 11.4622 21.4091 11.1195 22.0804Z" fill="white" stroke="white" stroke-width="0.5"/>
</g>
</svg>
