<svg width="17" height="14" viewBox="0 0 17 14" fill="none" xmlns="http://www.w3.org/2000/svg">
<path fill-rule="evenodd" clip-rule="evenodd" d="M15.6475 11.023C15.6475 8.38693 13.5106 6.25 10.8745 6.25C8.23849 6.25 6.10156 8.38693 6.10156 11.023C6.10156 13.659 15.6475 13.659 15.6475 11.023Z" stroke="white"/>
<path fill-rule="evenodd" clip-rule="evenodd" d="M10.875 6.25C12.3247 6.25 13.5 5.07475 13.5 3.625C13.5 2.17525 12.3247 1 10.875 1C9.42525 1 8.25 2.17525 8.25 3.625C8.25 5.07475 9.42525 6.25 10.875 6.25Z" stroke="white"/>
<path fill-rule="evenodd" clip-rule="evenodd" d="M3.75 1.75H2.25V4H0V5.5H2.25V7.75H3.75V5.5H6V4H3.75V1.75Z" fill="white"/>
</svg>
